<mxfile host="65bd71144e">
    <diagram id="VzQZqp9PzR304GT8cQcO" name="Page-1">
        <mxGraphModel dx="1288" dy="1700" grid="1" gridSize="10" guides="1" tooltips="1" connect="1" arrows="1" fold="1" page="1" pageScale="1" pageWidth="850" pageHeight="1100" math="0" shadow="0">
            <root>
                <mxCell id="0"/>
                <mxCell id="1" parent="0"/>
                <mxCell id="49" value="Login" style="swimlane;childLayout=stackLayout;resizeParent=1;resizeParentMax=0;startSize=20;fontSize=18;strokeColor=default;" parent="1" vertex="1">
                    <mxGeometry x="260" y="160" width="600" height="670" as="geometry"/>
                </mxCell>
                <mxCell id="50" value="Middleware" style="swimlane;startSize=20;fontSize=18;strokeColor=default;" parent="49" vertex="1">
                    <mxGeometry y="20" width="120" height="650" as="geometry"/>
                </mxCell>
                <mxCell id="51" value="Handler" style="swimlane;startSize=20;fontSize=18;strokeColor=default;" parent="49" vertex="1">
                    <mxGeometry x="120" y="20" width="120" height="650" as="geometry"/>
                </mxCell>
                <mxCell id="77" style="edgeStyle=orthogonalEdgeStyle;html=1;exitX=0.5;exitY=1;exitDx=0;exitDy=0;entryX=0.5;entryY=0;entryDx=0;entryDy=0;fontSize=12;" parent="51" source="58" target="59" edge="1">
                    <mxGeometry relative="1" as="geometry"/>
                </mxCell>
                <mxCell id="58" value="Parse request body" style="rounded=1;whiteSpace=wrap;html=1;absoluteArcSize=1;arcSize=14;strokeWidth=2;fontSize=12;" parent="51" vertex="1">
                    <mxGeometry x="20" y="45" width="90" height="50" as="geometry"/>
                </mxCell>
                <mxCell id="59" value="Call usecase login" style="rounded=1;whiteSpace=wrap;html=1;absoluteArcSize=1;arcSize=14;strokeWidth=2;fontSize=12;" parent="51" vertex="1">
                    <mxGeometry x="20" y="130" width="90" height="50" as="geometry"/>
                </mxCell>
                <mxCell id="68" value="map response &amp;amp; handle error" style="rounded=1;whiteSpace=wrap;html=1;absoluteArcSize=1;arcSize=14;strokeWidth=2;fontSize=12;" parent="51" vertex="1">
                    <mxGeometry x="20" y="550" width="90" height="50" as="geometry"/>
                </mxCell>
                <mxCell id="52" value="Usecase" style="swimlane;startSize=20;fontSize=18;strokeColor=default;" parent="49" vertex="1">
                    <mxGeometry x="240" y="20" width="120" height="650" as="geometry">
                        <mxRectangle x="240" y="20" width="40" height="460" as="alternateBounds"/>
                    </mxGeometry>
                </mxCell>
                <mxCell id="60" value="Get user by username" style="rounded=1;whiteSpace=wrap;html=1;absoluteArcSize=1;arcSize=14;strokeWidth=2;fontSize=12;" parent="52" vertex="1">
                    <mxGeometry x="15" y="130" width="90" height="50" as="geometry"/>
                </mxCell>
                <mxCell id="71" value="Yes" style="edgeStyle=orthogonalEdgeStyle;html=1;exitX=0.5;exitY=1;exitDx=0;exitDy=0;exitPerimeter=0;entryX=0.5;entryY=0;entryDx=0;entryDy=0;entryPerimeter=0;fontSize=12;" parent="52" source="62" target="65" edge="1">
                    <mxGeometry relative="1" as="geometry"/>
                </mxCell>
                <mxCell id="62" value="user exist?" style="strokeWidth=2;html=1;shape=mxgraph.flowchart.decision;whiteSpace=wrap;fontSize=12;" parent="52" vertex="1">
                    <mxGeometry x="10" y="220" width="90" height="80" as="geometry"/>
                </mxCell>
                <mxCell id="72" value="Yes" style="edgeStyle=orthogonalEdgeStyle;html=1;exitX=0.5;exitY=1;exitDx=0;exitDy=0;exitPerimeter=0;entryX=0.5;entryY=0;entryDx=0;entryDy=0;fontSize=12;" parent="52" source="65" target="66" edge="1">
                    <mxGeometry relative="1" as="geometry"/>
                </mxCell>
                <mxCell id="65" value="password correct?" style="strokeWidth=2;html=1;shape=mxgraph.flowchart.decision;whiteSpace=wrap;fontSize=12;" parent="52" vertex="1">
                    <mxGeometry x="15" y="350" width="90" height="80" as="geometry"/>
                </mxCell>
                <mxCell id="66" value="Generate token &amp;amp; refresh token" style="rounded=1;whiteSpace=wrap;html=1;absoluteArcSize=1;arcSize=14;strokeWidth=2;fontSize=12;" parent="52" vertex="1">
                    <mxGeometry x="15" y="470" width="90" height="50" as="geometry"/>
                </mxCell>
                <mxCell id="55" value="Proxy" style="swimlane;startSize=20;fontSize=18;strokeColor=default;" parent="49" vertex="1">
                    <mxGeometry x="360" y="20" width="120" height="650" as="geometry">
                        <mxRectangle x="280" y="20" width="40" height="460" as="alternateBounds"/>
                    </mxGeometry>
                </mxCell>
                <mxCell id="56" value="Repo" style="swimlane;startSize=20;fontSize=18;strokeColor=default;" parent="49" vertex="1">
                    <mxGeometry x="480" y="20" width="120" height="650" as="geometry">
                        <mxRectangle x="280" y="20" width="40" height="460" as="alternateBounds"/>
                    </mxGeometry>
                </mxCell>
                <mxCell id="61" value="Get user by username" style="rounded=1;whiteSpace=wrap;html=1;absoluteArcSize=1;arcSize=14;strokeWidth=2;fontSize=12;" parent="56" vertex="1">
                    <mxGeometry x="20" y="130" width="90" height="50" as="geometry"/>
                </mxCell>
                <mxCell id="69" style="edgeStyle=orthogonalEdgeStyle;html=1;exitX=0;exitY=0.5;exitDx=0;exitDy=0;exitPerimeter=0;entryX=0.5;entryY=0;entryDx=0;entryDy=0;fontSize=12;" parent="49" source="62" target="68" edge="1">
                    <mxGeometry relative="1" as="geometry"/>
                </mxCell>
                <mxCell id="70" value="No" style="edgeLabel;html=1;align=center;verticalAlign=middle;resizable=0;points=[];fontSize=12;" parent="69" vertex="1" connectable="0">
                    <mxGeometry x="-0.8085" y="2" relative="1" as="geometry">
                        <mxPoint as="offset"/>
                    </mxGeometry>
                </mxCell>
                <mxCell id="73" style="edgeStyle=orthogonalEdgeStyle;html=1;exitX=0.5;exitY=1;exitDx=0;exitDy=0;entryX=1;entryY=0.5;entryDx=0;entryDy=0;fontSize=12;" parent="49" source="66" target="68" edge="1">
                    <mxGeometry relative="1" as="geometry"/>
                </mxCell>
                <mxCell id="74" style="edgeStyle=orthogonalEdgeStyle;html=1;exitX=0;exitY=0.5;exitDx=0;exitDy=0;exitPerimeter=0;entryX=0.5;entryY=0;entryDx=0;entryDy=0;fontSize=12;" parent="49" source="65" target="68" edge="1">
                    <mxGeometry relative="1" as="geometry"/>
                </mxCell>
                <mxCell id="75" value="No" style="edgeLabel;html=1;align=center;verticalAlign=middle;resizable=0;points=[];fontSize=12;" parent="74" vertex="1" connectable="0">
                    <mxGeometry x="-0.7043" y="3" relative="1" as="geometry">
                        <mxPoint as="offset"/>
                    </mxGeometry>
                </mxCell>
                <mxCell id="78" style="edgeStyle=orthogonalEdgeStyle;html=1;exitX=1;exitY=0.5;exitDx=0;exitDy=0;entryX=0;entryY=0.5;entryDx=0;entryDy=0;fontSize=12;" parent="49" source="59" target="60" edge="1">
                    <mxGeometry relative="1" as="geometry"/>
                </mxCell>
                <mxCell id="79" style="edgeStyle=orthogonalEdgeStyle;html=1;exitX=1;exitY=0.5;exitDx=0;exitDy=0;entryX=0;entryY=0.5;entryDx=0;entryDy=0;fontSize=12;" parent="49" source="60" target="61" edge="1">
                    <mxGeometry relative="1" as="geometry"/>
                </mxCell>
                <mxCell id="80" style="edgeStyle=orthogonalEdgeStyle;html=1;exitX=0.5;exitY=1;exitDx=0;exitDy=0;entryX=0.5;entryY=0;entryDx=0;entryDy=0;entryPerimeter=0;fontSize=12;" parent="49" source="61" target="62" edge="1">
                    <mxGeometry relative="1" as="geometry"/>
                </mxCell>
                <mxCell id="76" style="edgeStyle=orthogonalEdgeStyle;html=1;exitX=1;exitY=0.5;exitDx=0;exitDy=0;exitPerimeter=0;entryX=0;entryY=0.5;entryDx=0;entryDy=0;fontSize=12;" parent="1" source="57" target="58" edge="1">
                    <mxGeometry relative="1" as="geometry"/>
                </mxCell>
                <mxCell id="57" value="&lt;font style=&quot;font-size: 12px&quot;&gt;POST /login&lt;/font&gt;" style="strokeWidth=2;html=1;shape=mxgraph.flowchart.start_1;whiteSpace=wrap;fontSize=18;" parent="1" vertex="1">
                    <mxGeometry x="110" y="220" width="100" height="60" as="geometry"/>
                </mxCell>
                <mxCell id="67" value="&lt;font style=&quot;font-size: 12px&quot;&gt;End&lt;/font&gt;" style="strokeWidth=2;html=1;shape=mxgraph.flowchart.start_1;whiteSpace=wrap;fontSize=18;" parent="1" vertex="1">
                    <mxGeometry x="110" y="725" width="100" height="60" as="geometry"/>
                </mxCell>
                <mxCell id="81" style="edgeStyle=orthogonalEdgeStyle;html=1;exitX=0;exitY=0.5;exitDx=0;exitDy=0;entryX=1;entryY=0.5;entryDx=0;entryDy=0;entryPerimeter=0;fontSize=12;" parent="1" source="68" target="67" edge="1">
                    <mxGeometry relative="1" as="geometry"/>
                </mxCell>
                <mxCell id="89" value="Create User" style="swimlane;childLayout=stackLayout;resizeParent=1;resizeParentMax=0;startSize=20;fontSize=18;strokeColor=default;" parent="1" vertex="1">
                    <mxGeometry x="1120" y="160" width="600" height="770" as="geometry"/>
                </mxCell>
                <mxCell id="90" value="Middleware" style="swimlane;startSize=20;fontSize=18;strokeColor=default;" parent="89" vertex="1">
                    <mxGeometry y="20" width="120" height="750" as="geometry"/>
                </mxCell>
                <mxCell id="131" value="Yes" style="edgeStyle=orthogonalEdgeStyle;html=1;exitX=0.5;exitY=1;exitDx=0;exitDy=0;exitPerimeter=0;entryX=0.5;entryY=0;entryDx=0;entryDy=0;entryPerimeter=0;fontSize=12;" parent="90" source="120" target="121" edge="1">
                    <mxGeometry relative="1" as="geometry"/>
                </mxCell>
                <mxCell id="120" value="token header valid?" style="strokeWidth=2;html=1;shape=mxgraph.flowchart.decision;whiteSpace=wrap;fontSize=12;" parent="90" vertex="1">
                    <mxGeometry x="25" y="58" width="65" height="80" as="geometry"/>
                </mxCell>
                <mxCell id="121" value="is the role admin?" style="strokeWidth=2;html=1;shape=mxgraph.flowchart.decision;whiteSpace=wrap;fontSize=12;" parent="90" vertex="1">
                    <mxGeometry x="25.5" y="180" width="65" height="80" as="geometry"/>
                </mxCell>
                <mxCell id="91" value="Handler" style="swimlane;startSize=20;fontSize=18;strokeColor=default;" parent="89" vertex="1">
                    <mxGeometry x="120" y="20" width="120" height="750" as="geometry"/>
                </mxCell>
                <mxCell id="92" style="edgeStyle=orthogonalEdgeStyle;html=1;exitX=0.5;exitY=1;exitDx=0;exitDy=0;entryX=0.5;entryY=0;entryDx=0;entryDy=0;fontSize=12;" parent="91" source="93" target="94" edge="1">
                    <mxGeometry relative="1" as="geometry"/>
                </mxCell>
                <mxCell id="93" value="Parse request body &amp;amp; param" style="rounded=1;whiteSpace=wrap;html=1;absoluteArcSize=1;arcSize=14;strokeWidth=2;fontSize=12;" parent="91" vertex="1">
                    <mxGeometry x="10" y="170" width="90" height="50" as="geometry"/>
                </mxCell>
                <mxCell id="94" value="Call usecase create user" style="rounded=1;whiteSpace=wrap;html=1;absoluteArcSize=1;arcSize=14;strokeWidth=2;fontSize=12;" parent="91" vertex="1">
                    <mxGeometry x="10" y="260" width="90" height="50" as="geometry"/>
                </mxCell>
                <mxCell id="95" value="map response &amp;amp; handle error" style="rounded=1;whiteSpace=wrap;html=1;absoluteArcSize=1;arcSize=14;strokeWidth=2;fontSize=12;" parent="91" vertex="1">
                    <mxGeometry x="20" y="675" width="90" height="50" as="geometry"/>
                </mxCell>
                <mxCell id="112" style="edgeStyle=orthogonalEdgeStyle;html=1;exitX=1;exitY=0.5;exitDx=0;exitDy=0;entryX=0;entryY=0.5;entryDx=0;entryDy=0;fontSize=12;" parent="89" source="97" target="105" edge="1">
                    <mxGeometry relative="1" as="geometry"/>
                </mxCell>
                <mxCell id="113" style="edgeStyle=orthogonalEdgeStyle;html=1;exitX=0.5;exitY=1;exitDx=0;exitDy=0;entryX=0.5;entryY=0;entryDx=0;entryDy=0;entryPerimeter=0;fontSize=12;" parent="89" source="105" target="99" edge="1">
                    <mxGeometry relative="1" as="geometry"/>
                </mxCell>
                <mxCell id="106" style="edgeStyle=orthogonalEdgeStyle;html=1;exitX=0;exitY=0.5;exitDx=0;exitDy=0;exitPerimeter=0;entryX=0.5;entryY=0;entryDx=0;entryDy=0;fontSize=12;" parent="89" source="99" target="95" edge="1">
                    <mxGeometry relative="1" as="geometry"/>
                </mxCell>
                <mxCell id="107" value="Yes" style="edgeLabel;html=1;align=center;verticalAlign=middle;resizable=0;points=[];fontSize=12;" parent="106" vertex="1" connectable="0">
                    <mxGeometry x="-0.8085" y="2" relative="1" as="geometry">
                        <mxPoint as="offset"/>
                    </mxGeometry>
                </mxCell>
                <mxCell id="96" value="Usecase" style="swimlane;startSize=20;fontSize=18;strokeColor=default;" parent="89" vertex="1">
                    <mxGeometry x="240" y="20" width="120" height="750" as="geometry">
                        <mxRectangle x="240" y="20" width="40" height="460" as="alternateBounds"/>
                    </mxGeometry>
                </mxCell>
                <mxCell id="97" value="Get user by username" style="rounded=1;whiteSpace=wrap;html=1;absoluteArcSize=1;arcSize=14;strokeWidth=2;fontSize=12;" parent="96" vertex="1">
                    <mxGeometry x="15" y="255" width="90" height="50" as="geometry"/>
                </mxCell>
                <mxCell id="98" value="No" style="edgeStyle=orthogonalEdgeStyle;html=1;exitX=0.5;exitY=1;exitDx=0;exitDy=0;exitPerimeter=0;entryX=0.5;entryY=0;entryDx=0;entryDy=0;fontSize=12;" parent="96" source="99" target="102" edge="1">
                    <mxGeometry relative="1" as="geometry">
                        <mxPoint x="60" y="475" as="targetPoint"/>
                    </mxGeometry>
                </mxCell>
                <mxCell id="99" value="user exist?" style="strokeWidth=2;html=1;shape=mxgraph.flowchart.decision;whiteSpace=wrap;fontSize=12;" parent="96" vertex="1">
                    <mxGeometry x="15" y="340" width="90" height="80" as="geometry"/>
                </mxCell>
                <mxCell id="102" value="Create new user" style="rounded=1;whiteSpace=wrap;html=1;absoluteArcSize=1;arcSize=14;strokeWidth=2;fontSize=12;" parent="96" vertex="1">
                    <mxGeometry x="15" y="480" width="90" height="50" as="geometry"/>
                </mxCell>
                <mxCell id="124" style="edgeStyle=orthogonalEdgeStyle;html=1;exitX=0.5;exitY=1;exitDx=0;exitDy=0;entryX=0.5;entryY=0;entryDx=0;entryDy=0;fontSize=12;" parent="96" source="122" target="97" edge="1">
                    <mxGeometry relative="1" as="geometry"/>
                </mxCell>
                <mxCell id="122" value="Validate struct input" style="rounded=1;whiteSpace=wrap;html=1;absoluteArcSize=1;arcSize=14;strokeWidth=2;fontSize=12;" parent="96" vertex="1">
                    <mxGeometry x="15" y="170" width="90" height="50" as="geometry"/>
                </mxCell>
                <mxCell id="103" value="Proxy" style="swimlane;startSize=20;fontSize=18;strokeColor=default;" parent="89" vertex="1">
                    <mxGeometry x="360" y="20" width="120" height="750" as="geometry">
                        <mxRectangle x="280" y="20" width="40" height="460" as="alternateBounds"/>
                    </mxGeometry>
                </mxCell>
                <mxCell id="126" value="Hash the password" style="rounded=1;whiteSpace=wrap;html=1;absoluteArcSize=1;arcSize=14;strokeWidth=2;fontSize=12;" parent="103" vertex="1">
                    <mxGeometry x="15" y="480" width="90" height="50" as="geometry"/>
                </mxCell>
                <mxCell id="104" value="Repo" style="swimlane;startSize=20;fontSize=18;strokeColor=default;" parent="89" vertex="1">
                    <mxGeometry x="480" y="20" width="120" height="750" as="geometry">
                        <mxRectangle x="280" y="20" width="40" height="460" as="alternateBounds"/>
                    </mxGeometry>
                </mxCell>
                <mxCell id="105" value="Get user by username" style="rounded=1;whiteSpace=wrap;html=1;absoluteArcSize=1;arcSize=14;strokeWidth=2;fontSize=12;" parent="104" vertex="1">
                    <mxGeometry x="20" y="255" width="90" height="50" as="geometry"/>
                </mxCell>
                <mxCell id="125" value="Create new user" style="rounded=1;whiteSpace=wrap;html=1;absoluteArcSize=1;arcSize=14;strokeWidth=2;fontSize=12;" parent="104" vertex="1">
                    <mxGeometry x="15" y="480" width="90" height="50" as="geometry"/>
                </mxCell>
                <mxCell id="123" style="edgeStyle=orthogonalEdgeStyle;html=1;exitX=1;exitY=0.5;exitDx=0;exitDy=0;entryX=0;entryY=0.5;entryDx=0;entryDy=0;fontSize=12;" parent="89" source="94" target="122" edge="1">
                    <mxGeometry relative="1" as="geometry"/>
                </mxCell>
                <mxCell id="127" style="edgeStyle=orthogonalEdgeStyle;html=1;exitX=0.5;exitY=1;exitDx=0;exitDy=0;entryX=1;entryY=0.5;entryDx=0;entryDy=0;fontSize=12;" parent="89" source="125" target="95" edge="1">
                    <mxGeometry relative="1" as="geometry"/>
                </mxCell>
                <mxCell id="128" style="edgeStyle=orthogonalEdgeStyle;html=1;exitX=1;exitY=0.5;exitDx=0;exitDy=0;entryX=0;entryY=0.5;entryDx=0;entryDy=0;fontSize=12;" parent="89" source="102" target="126" edge="1">
                    <mxGeometry relative="1" as="geometry"/>
                </mxCell>
                <mxCell id="129" style="edgeStyle=orthogonalEdgeStyle;html=1;exitX=1;exitY=0.5;exitDx=0;exitDy=0;fontSize=12;" parent="89" source="126" target="125" edge="1">
                    <mxGeometry relative="1" as="geometry"/>
                </mxCell>
                <mxCell id="132" style="edgeStyle=orthogonalEdgeStyle;html=1;exitX=0.5;exitY=1;exitDx=0;exitDy=0;exitPerimeter=0;entryX=0;entryY=0.5;entryDx=0;entryDy=0;fontSize=12;" parent="89" source="121" target="93" edge="1">
                    <mxGeometry relative="1" as="geometry"/>
                </mxCell>
                <mxCell id="133" value="Yes" style="edgeLabel;html=1;align=center;verticalAlign=middle;resizable=0;points=[];fontSize=12;" parent="132" vertex="1" connectable="0">
                    <mxGeometry x="-0.4949" y="-4" relative="1" as="geometry">
                        <mxPoint as="offset"/>
                    </mxGeometry>
                </mxCell>
                <mxCell id="130" style="edgeStyle=orthogonalEdgeStyle;html=1;exitX=1;exitY=0.5;exitDx=0;exitDy=0;exitPerimeter=0;entryX=0.5;entryY=0;entryDx=0;entryDy=0;entryPerimeter=0;fontSize=12;" parent="1" source="115" target="120" edge="1">
                    <mxGeometry relative="1" as="geometry"/>
                </mxCell>
                <mxCell id="115" value="&lt;font style=&quot;font-size: 12px&quot;&gt;POST /users&lt;/font&gt;" style="strokeWidth=2;html=1;shape=mxgraph.flowchart.start_1;whiteSpace=wrap;fontSize=18;" parent="1" vertex="1">
                    <mxGeometry x="970" y="190" width="100" height="60" as="geometry"/>
                </mxCell>
                <mxCell id="116" value="&lt;font style=&quot;font-size: 12px&quot;&gt;End&lt;/font&gt;" style="strokeWidth=2;html=1;shape=mxgraph.flowchart.start_1;whiteSpace=wrap;fontSize=18;" parent="1" vertex="1">
                    <mxGeometry x="970" y="850" width="100" height="60" as="geometry"/>
                </mxCell>
                <mxCell id="117" style="edgeStyle=orthogonalEdgeStyle;html=1;exitX=0;exitY=0.5;exitDx=0;exitDy=0;entryX=1;entryY=0.5;entryDx=0;entryDy=0;entryPerimeter=0;fontSize=12;" parent="1" source="95" target="116" edge="1">
                    <mxGeometry relative="1" as="geometry"/>
                </mxCell>
                <mxCell id="134" value="Update User" style="swimlane;childLayout=stackLayout;resizeParent=1;resizeParentMax=0;startSize=20;fontSize=18;strokeColor=default;" parent="1" vertex="1">
                    <mxGeometry x="2090" y="160" width="600" height="770" as="geometry"/>
                </mxCell>
                <mxCell id="135" value="Middleware" style="swimlane;startSize=20;fontSize=18;strokeColor=default;" parent="134" vertex="1">
                    <mxGeometry y="20" width="120" height="750" as="geometry"/>
                </mxCell>
                <mxCell id="136" value="Yes" style="edgeStyle=orthogonalEdgeStyle;html=1;exitX=0.5;exitY=1;exitDx=0;exitDy=0;exitPerimeter=0;entryX=0.5;entryY=0;entryDx=0;entryDy=0;entryPerimeter=0;fontSize=12;" parent="135" source="137" target="138" edge="1">
                    <mxGeometry relative="1" as="geometry"/>
                </mxCell>
                <mxCell id="137" value="token header valid?" style="strokeWidth=2;html=1;shape=mxgraph.flowchart.decision;whiteSpace=wrap;fontSize=12;" parent="135" vertex="1">
                    <mxGeometry x="25" y="58" width="65" height="80" as="geometry"/>
                </mxCell>
                <mxCell id="138" value="is the role admin?" style="strokeWidth=2;html=1;shape=mxgraph.flowchart.decision;whiteSpace=wrap;fontSize=12;" parent="135" vertex="1">
                    <mxGeometry x="25.5" y="180" width="65" height="80" as="geometry"/>
                </mxCell>
                <mxCell id="139" value="Handler" style="swimlane;startSize=20;fontSize=18;strokeColor=default;" parent="134" vertex="1">
                    <mxGeometry x="120" y="20" width="120" height="750" as="geometry"/>
                </mxCell>
                <mxCell id="140" style="edgeStyle=orthogonalEdgeStyle;html=1;exitX=0.5;exitY=1;exitDx=0;exitDy=0;entryX=0.5;entryY=0;entryDx=0;entryDy=0;fontSize=12;" parent="139" source="141" target="142" edge="1">
                    <mxGeometry relative="1" as="geometry"/>
                </mxCell>
                <mxCell id="141" value="Parse request body" style="rounded=1;whiteSpace=wrap;html=1;absoluteArcSize=1;arcSize=14;strokeWidth=2;fontSize=12;" parent="139" vertex="1">
                    <mxGeometry x="10" y="170" width="90" height="50" as="geometry"/>
                </mxCell>
                <mxCell id="142" value="Call usecase update user" style="rounded=1;whiteSpace=wrap;html=1;absoluteArcSize=1;arcSize=14;strokeWidth=2;fontSize=12;" parent="139" vertex="1">
                    <mxGeometry x="10" y="260" width="90" height="50" as="geometry"/>
                </mxCell>
                <mxCell id="143" value="map response &amp;amp; handle error" style="rounded=1;whiteSpace=wrap;html=1;absoluteArcSize=1;arcSize=14;strokeWidth=2;fontSize=12;" parent="139" vertex="1">
                    <mxGeometry x="20" y="675" width="90" height="50" as="geometry"/>
                </mxCell>
                <mxCell id="146" style="edgeStyle=orthogonalEdgeStyle;html=1;exitX=0;exitY=0.5;exitDx=0;exitDy=0;exitPerimeter=0;entryX=0.5;entryY=0;entryDx=0;entryDy=0;fontSize=12;" parent="134" source="176" target="143" edge="1">
                    <mxGeometry relative="1" as="geometry">
                        <mxPoint x="255" y="400" as="sourcePoint"/>
                    </mxGeometry>
                </mxCell>
                <mxCell id="147" value="No" style="edgeLabel;html=1;align=center;verticalAlign=middle;resizable=0;points=[];fontSize=12;" parent="146" vertex="1" connectable="0">
                    <mxGeometry x="-0.8085" y="2" relative="1" as="geometry">
                        <mxPoint as="offset"/>
                    </mxGeometry>
                </mxCell>
                <mxCell id="148" value="Usecase" style="swimlane;startSize=20;fontSize=18;strokeColor=default;" parent="134" vertex="1">
                    <mxGeometry x="240" y="20" width="120" height="750" as="geometry">
                        <mxRectangle x="240" y="20" width="40" height="460" as="alternateBounds"/>
                    </mxGeometry>
                </mxCell>
                <mxCell id="152" value="Update user" style="rounded=1;whiteSpace=wrap;html=1;absoluteArcSize=1;arcSize=14;strokeWidth=2;fontSize=12;" parent="148" vertex="1">
                    <mxGeometry x="15" y="350" width="90" height="50" as="geometry"/>
                </mxCell>
                <mxCell id="153" style="edgeStyle=orthogonalEdgeStyle;html=1;exitX=0.5;exitY=1;exitDx=0;exitDy=0;fontSize=12;" parent="148" source="154" target="152" edge="1">
                    <mxGeometry relative="1" as="geometry">
                        <mxPoint x="60" y="255" as="targetPoint"/>
                    </mxGeometry>
                </mxCell>
                <mxCell id="154" value="Validate struct input" style="rounded=1;whiteSpace=wrap;html=1;absoluteArcSize=1;arcSize=14;strokeWidth=2;fontSize=12;" parent="148" vertex="1">
                    <mxGeometry x="15" y="200" width="90" height="50" as="geometry"/>
                </mxCell>
                <mxCell id="176" value="Is error &lt;span style=&quot;background-color: rgb(20 , 24 , 36) ; color: rgb(203 , 206 , 188) ; font-family: &amp;#34;fira code&amp;#34; , &amp;#34;monospace&amp;#34; , monospace , &amp;#34;droid sans fallback&amp;#34; , &amp;#34;menlo&amp;#34; , &amp;#34;monaco&amp;#34; , &amp;#34;courier new&amp;#34; , monospace&quot;&gt;Sql.ErrNoRows&lt;/span&gt;&lt;span&gt;?&lt;/span&gt;" style="strokeWidth=2;html=1;shape=mxgraph.flowchart.decision;whiteSpace=wrap;fontSize=12;" parent="148" vertex="1">
                    <mxGeometry x="15" y="460" width="90" height="80" as="geometry"/>
                </mxCell>
                <mxCell id="180" value="return&amp;nbsp;&lt;br&gt;&lt;div style=&quot;color: rgb(203 , 206 , 188) ; background-color: rgb(20 , 24 , 36) ; font-family: &amp;#34;fira code&amp;#34; , &amp;#34;monospace&amp;#34; , monospace , &amp;#34;droid sans fallback&amp;#34; , &amp;#34;menlo&amp;#34; , &amp;#34;monaco&amp;#34; , &amp;#34;courier new&amp;#34; , monospace ; line-height: 18px&quot;&gt;ErrUserNotFound&lt;/div&gt;" style="rounded=1;whiteSpace=wrap;html=1;absoluteArcSize=1;arcSize=14;strokeWidth=2;fontSize=12;" parent="148" vertex="1">
                    <mxGeometry x="7" y="610" width="105" height="50" as="geometry"/>
                </mxCell>
                <mxCell id="155" value="Proxy" style="swimlane;startSize=20;fontSize=18;strokeColor=default;" parent="134" vertex="1">
                    <mxGeometry x="360" y="20" width="120" height="750" as="geometry">
                        <mxRectangle x="280" y="20" width="40" height="460" as="alternateBounds"/>
                    </mxGeometry>
                </mxCell>
                <mxCell id="156" value="Hash the password" style="rounded=1;whiteSpace=wrap;html=1;absoluteArcSize=1;arcSize=14;strokeWidth=2;fontSize=12;" parent="155" vertex="1">
                    <mxGeometry x="15" y="350" width="90" height="50" as="geometry"/>
                </mxCell>
                <mxCell id="157" value="Repo" style="swimlane;startSize=20;fontSize=18;strokeColor=default;" parent="134" vertex="1">
                    <mxGeometry x="480" y="20" width="120" height="750" as="geometry">
                        <mxRectangle x="280" y="20" width="40" height="460" as="alternateBounds"/>
                    </mxGeometry>
                </mxCell>
                <mxCell id="159" value="Update user" style="rounded=1;whiteSpace=wrap;html=1;absoluteArcSize=1;arcSize=14;strokeWidth=2;fontSize=12;" parent="157" vertex="1">
                    <mxGeometry x="15" y="350" width="90" height="50" as="geometry"/>
                </mxCell>
                <mxCell id="162" style="edgeStyle=orthogonalEdgeStyle;html=1;exitX=1;exitY=0.5;exitDx=0;exitDy=0;entryX=0;entryY=0.5;entryDx=0;entryDy=0;fontSize=12;" parent="134" source="142" target="154" edge="1">
                    <mxGeometry relative="1" as="geometry"/>
                </mxCell>
                <mxCell id="164" style="edgeStyle=orthogonalEdgeStyle;html=1;exitX=1;exitY=0.5;exitDx=0;exitDy=0;entryX=0;entryY=0.5;entryDx=0;entryDy=0;fontSize=12;" parent="134" source="152" target="156" edge="1">
                    <mxGeometry relative="1" as="geometry"/>
                </mxCell>
                <mxCell id="165" style="edgeStyle=orthogonalEdgeStyle;html=1;exitX=1;exitY=0.5;exitDx=0;exitDy=0;fontSize=12;" parent="134" source="156" target="159" edge="1">
                    <mxGeometry relative="1" as="geometry"/>
                </mxCell>
                <mxCell id="166" style="edgeStyle=orthogonalEdgeStyle;html=1;exitX=0.5;exitY=1;exitDx=0;exitDy=0;exitPerimeter=0;entryX=0;entryY=0.5;entryDx=0;entryDy=0;fontSize=12;" parent="134" source="138" target="141" edge="1">
                    <mxGeometry relative="1" as="geometry"/>
                </mxCell>
                <mxCell id="167" value="Yes" style="edgeLabel;html=1;align=center;verticalAlign=middle;resizable=0;points=[];fontSize=12;" parent="166" vertex="1" connectable="0">
                    <mxGeometry x="-0.4949" y="-4" relative="1" as="geometry">
                        <mxPoint as="offset"/>
                    </mxGeometry>
                </mxCell>
                <mxCell id="181" style="edgeStyle=orthogonalEdgeStyle;html=1;exitX=0.5;exitY=1;exitDx=0;exitDy=0;entryX=1;entryY=0.5;entryDx=0;entryDy=0;fontSize=12;" parent="134" source="180" target="143" edge="1">
                    <mxGeometry relative="1" as="geometry"/>
                </mxCell>
                <mxCell id="182" style="edgeStyle=orthogonalEdgeStyle;html=1;exitX=0.5;exitY=1;exitDx=0;exitDy=0;entryX=0.5;entryY=0;entryDx=0;entryDy=0;entryPerimeter=0;fontSize=12;" parent="134" source="159" target="176" edge="1">
                    <mxGeometry relative="1" as="geometry"/>
                </mxCell>
                <mxCell id="168" style="edgeStyle=orthogonalEdgeStyle;html=1;exitX=1;exitY=0.5;exitDx=0;exitDy=0;exitPerimeter=0;entryX=0.5;entryY=0;entryDx=0;entryDy=0;entryPerimeter=0;fontSize=12;" parent="1" source="169" target="137" edge="1">
                    <mxGeometry relative="1" as="geometry"/>
                </mxCell>
                <mxCell id="169" value="&lt;font style=&quot;font-size: 12px&quot;&gt;PATCH /users/:id&lt;/font&gt;" style="strokeWidth=2;html=1;shape=mxgraph.flowchart.start_1;whiteSpace=wrap;fontSize=18;" parent="1" vertex="1">
                    <mxGeometry x="1940" y="190" width="100" height="60" as="geometry"/>
                </mxCell>
                <mxCell id="170" value="&lt;font style=&quot;font-size: 12px&quot;&gt;End&lt;/font&gt;" style="strokeWidth=2;html=1;shape=mxgraph.flowchart.start_1;whiteSpace=wrap;fontSize=18;" parent="1" vertex="1">
                    <mxGeometry x="1940" y="850" width="100" height="60" as="geometry"/>
                </mxCell>
                <mxCell id="171" style="edgeStyle=orthogonalEdgeStyle;html=1;exitX=0;exitY=0.5;exitDx=0;exitDy=0;entryX=1;entryY=0.5;entryDx=0;entryDy=0;entryPerimeter=0;fontSize=12;" parent="1" source="143" target="170" edge="1">
                    <mxGeometry relative="1" as="geometry"/>
                </mxCell>
                <mxCell id="172" style="edgeStyle=orthogonalEdgeStyle;html=1;exitX=0;exitY=0.5;exitDx=0;exitDy=0;exitPerimeter=0;entryX=0.5;entryY=0;entryDx=0;entryDy=0;entryPerimeter=0;fontSize=12;" parent="1" source="138" target="170" edge="1">
                    <mxGeometry relative="1" as="geometry"/>
                </mxCell>
                <mxCell id="175" value="No" style="edgeLabel;html=1;align=center;verticalAlign=middle;resizable=0;points=[];fontSize=12;" parent="172" vertex="1" connectable="0">
                    <mxGeometry x="-0.8384" y="3" relative="1" as="geometry">
                        <mxPoint as="offset"/>
                    </mxGeometry>
                </mxCell>
                <mxCell id="173" style="edgeStyle=orthogonalEdgeStyle;html=1;exitX=0;exitY=0.5;exitDx=0;exitDy=0;exitPerimeter=0;fontSize=12;" parent="1" source="137" edge="1">
                    <mxGeometry relative="1" as="geometry">
                        <mxPoint x="1990" y="850" as="targetPoint"/>
                    </mxGeometry>
                </mxCell>
                <mxCell id="174" value="No" style="edgeLabel;html=1;align=center;verticalAlign=middle;resizable=0;points=[];fontSize=12;" parent="173" vertex="1" connectable="0">
                    <mxGeometry x="-0.8756" y="1" relative="1" as="geometry">
                        <mxPoint x="1" as="offset"/>
                    </mxGeometry>
                </mxCell>
                <mxCell id="179" style="edgeStyle=orthogonalEdgeStyle;html=1;exitX=0.5;exitY=1;exitDx=0;exitDy=0;exitPerimeter=0;fontSize=12;" parent="1" source="176" edge="1">
                    <mxGeometry relative="1" as="geometry">
                        <mxPoint x="2390" y="790" as="targetPoint"/>
                    </mxGeometry>
                </mxCell>
                <mxCell id="224" value="Yes" style="edgeLabel;html=1;align=center;verticalAlign=middle;resizable=0;points=[];fontSize=12;" parent="179" vertex="1" connectable="0">
                    <mxGeometry x="-0.1933" y="3" relative="1" as="geometry">
                        <mxPoint as="offset"/>
                    </mxGeometry>
                </mxCell>
                <mxCell id="183" value="Delete User" style="swimlane;childLayout=stackLayout;resizeParent=1;resizeParentMax=0;startSize=20;fontSize=18;strokeColor=default;" parent="1" vertex="1">
                    <mxGeometry x="260" y="1000" width="600" height="770" as="geometry"/>
                </mxCell>
                <mxCell id="184" value="Middleware" style="swimlane;startSize=20;fontSize=18;strokeColor=default;" parent="183" vertex="1">
                    <mxGeometry y="20" width="120" height="750" as="geometry"/>
                </mxCell>
                <mxCell id="185" value="Yes" style="edgeStyle=orthogonalEdgeStyle;html=1;exitX=0.5;exitY=1;exitDx=0;exitDy=0;exitPerimeter=0;entryX=0.5;entryY=0;entryDx=0;entryDy=0;entryPerimeter=0;fontSize=12;" parent="184" source="186" target="187" edge="1">
                    <mxGeometry relative="1" as="geometry"/>
                </mxCell>
                <mxCell id="186" value="token header valid?" style="strokeWidth=2;html=1;shape=mxgraph.flowchart.decision;whiteSpace=wrap;fontSize=12;" parent="184" vertex="1">
                    <mxGeometry x="25" y="58" width="65" height="80" as="geometry"/>
                </mxCell>
                <mxCell id="187" value="is the role admin?" style="strokeWidth=2;html=1;shape=mxgraph.flowchart.decision;whiteSpace=wrap;fontSize=12;" parent="184" vertex="1">
                    <mxGeometry x="25.5" y="180" width="65" height="80" as="geometry"/>
                </mxCell>
                <mxCell id="188" value="Handler" style="swimlane;startSize=20;fontSize=18;strokeColor=default;" parent="183" vertex="1">
                    <mxGeometry x="120" y="20" width="120" height="750" as="geometry"/>
                </mxCell>
                <mxCell id="189" style="edgeStyle=orthogonalEdgeStyle;html=1;exitX=0.5;exitY=1;exitDx=0;exitDy=0;entryX=0.5;entryY=0;entryDx=0;entryDy=0;fontSize=12;" parent="188" source="190" target="191" edge="1">
                    <mxGeometry relative="1" as="geometry"/>
                </mxCell>
                <mxCell id="190" value="Get param ID" style="rounded=1;whiteSpace=wrap;html=1;absoluteArcSize=1;arcSize=14;strokeWidth=2;fontSize=12;" parent="188" vertex="1">
                    <mxGeometry x="10" y="170" width="90" height="50" as="geometry"/>
                </mxCell>
                <mxCell id="191" value="Call usecase delete user" style="rounded=1;whiteSpace=wrap;html=1;absoluteArcSize=1;arcSize=14;strokeWidth=2;fontSize=12;" parent="188" vertex="1">
                    <mxGeometry x="10" y="260" width="90" height="50" as="geometry"/>
                </mxCell>
                <mxCell id="192" value="map response &amp;amp; handle error" style="rounded=1;whiteSpace=wrap;html=1;absoluteArcSize=1;arcSize=14;strokeWidth=2;fontSize=12;" parent="188" vertex="1">
                    <mxGeometry x="20" y="675" width="90" height="50" as="geometry"/>
                </mxCell>
                <mxCell id="193" style="edgeStyle=orthogonalEdgeStyle;html=1;exitX=0;exitY=0.5;exitDx=0;exitDy=0;exitPerimeter=0;entryX=0.5;entryY=0;entryDx=0;entryDy=0;fontSize=12;" parent="183" source="199" target="192" edge="1">
                    <mxGeometry relative="1" as="geometry">
                        <mxPoint x="255" y="400" as="sourcePoint"/>
                    </mxGeometry>
                </mxCell>
                <mxCell id="194" value="No" style="edgeLabel;html=1;align=center;verticalAlign=middle;resizable=0;points=[];fontSize=12;" parent="193" vertex="1" connectable="0">
                    <mxGeometry x="-0.8085" y="2" relative="1" as="geometry">
                        <mxPoint as="offset"/>
                    </mxGeometry>
                </mxCell>
                <mxCell id="195" value="Usecase" style="swimlane;startSize=20;fontSize=18;strokeColor=default;" parent="183" vertex="1">
                    <mxGeometry x="240" y="20" width="120" height="750" as="geometry">
                        <mxRectangle x="240" y="20" width="40" height="460" as="alternateBounds"/>
                    </mxGeometry>
                </mxCell>
                <mxCell id="196" value="Delete user" style="rounded=1;whiteSpace=wrap;html=1;absoluteArcSize=1;arcSize=14;strokeWidth=2;fontSize=12;" parent="195" vertex="1">
                    <mxGeometry x="15" y="350" width="90" height="50" as="geometry"/>
                </mxCell>
                <mxCell id="199" value="Is error &lt;span style=&quot;background-color: rgb(20 , 24 , 36) ; color: rgb(203 , 206 , 188) ; font-family: &amp;#34;fira code&amp;#34; , &amp;#34;monospace&amp;#34; , monospace , &amp;#34;droid sans fallback&amp;#34; , &amp;#34;menlo&amp;#34; , &amp;#34;monaco&amp;#34; , &amp;#34;courier new&amp;#34; , monospace&quot;&gt;Sql.ErrNoRows&lt;/span&gt;&lt;span&gt;?&lt;/span&gt;" style="strokeWidth=2;html=1;shape=mxgraph.flowchart.decision;whiteSpace=wrap;fontSize=12;" parent="195" vertex="1">
                    <mxGeometry x="15" y="460" width="90" height="80" as="geometry"/>
                </mxCell>
                <mxCell id="200" value="return&amp;nbsp;&lt;br&gt;&lt;div style=&quot;color: rgb(203 , 206 , 188) ; background-color: rgb(20 , 24 , 36) ; font-family: &amp;#34;fira code&amp;#34; , &amp;#34;monospace&amp;#34; , monospace , &amp;#34;droid sans fallback&amp;#34; , &amp;#34;menlo&amp;#34; , &amp;#34;monaco&amp;#34; , &amp;#34;courier new&amp;#34; , monospace ; line-height: 18px&quot;&gt;ErrUserNotFound&lt;/div&gt;" style="rounded=1;whiteSpace=wrap;html=1;absoluteArcSize=1;arcSize=14;strokeWidth=2;fontSize=12;" parent="195" vertex="1">
                    <mxGeometry x="7" y="610" width="105" height="50" as="geometry"/>
                </mxCell>
                <mxCell id="201" value="Proxy" style="swimlane;startSize=20;fontSize=18;strokeColor=default;" parent="183" vertex="1">
                    <mxGeometry x="360" y="20" width="120" height="750" as="geometry">
                        <mxRectangle x="280" y="20" width="40" height="460" as="alternateBounds"/>
                    </mxGeometry>
                </mxCell>
                <mxCell id="203" value="Repo" style="swimlane;startSize=20;fontSize=18;strokeColor=default;" parent="183" vertex="1">
                    <mxGeometry x="480" y="20" width="120" height="750" as="geometry">
                        <mxRectangle x="280" y="20" width="40" height="460" as="alternateBounds"/>
                    </mxGeometry>
                </mxCell>
                <mxCell id="204" value="Delete user" style="rounded=1;whiteSpace=wrap;html=1;absoluteArcSize=1;arcSize=14;strokeWidth=2;fontSize=12;" parent="203" vertex="1">
                    <mxGeometry x="15" y="350" width="90" height="50" as="geometry"/>
                </mxCell>
                <mxCell id="207" style="edgeStyle=orthogonalEdgeStyle;html=1;exitX=1;exitY=0.5;exitDx=0;exitDy=0;fontSize=12;" parent="183" source="196" target="204" edge="1">
                    <mxGeometry relative="1" as="geometry">
                        <mxPoint x="465" y="395" as="sourcePoint"/>
                    </mxGeometry>
                </mxCell>
                <mxCell id="208" style="edgeStyle=orthogonalEdgeStyle;html=1;exitX=0.5;exitY=1;exitDx=0;exitDy=0;exitPerimeter=0;entryX=0;entryY=0.5;entryDx=0;entryDy=0;fontSize=12;" parent="183" source="187" target="190" edge="1">
                    <mxGeometry relative="1" as="geometry"/>
                </mxCell>
                <mxCell id="209" value="Yes" style="edgeLabel;html=1;align=center;verticalAlign=middle;resizable=0;points=[];fontSize=12;" parent="208" vertex="1" connectable="0">
                    <mxGeometry x="-0.4949" y="-4" relative="1" as="geometry">
                        <mxPoint as="offset"/>
                    </mxGeometry>
                </mxCell>
                <mxCell id="210" style="edgeStyle=orthogonalEdgeStyle;html=1;exitX=0.5;exitY=1;exitDx=0;exitDy=0;entryX=1;entryY=0.5;entryDx=0;entryDy=0;fontSize=12;" parent="183" source="200" target="192" edge="1">
                    <mxGeometry relative="1" as="geometry"/>
                </mxCell>
                <mxCell id="211" style="edgeStyle=orthogonalEdgeStyle;html=1;exitX=0.5;exitY=1;exitDx=0;exitDy=0;entryX=0.5;entryY=0;entryDx=0;entryDy=0;entryPerimeter=0;fontSize=12;" parent="183" source="204" target="199" edge="1">
                    <mxGeometry relative="1" as="geometry"/>
                </mxCell>
                <mxCell id="197" style="edgeStyle=orthogonalEdgeStyle;html=1;exitX=1;exitY=0.5;exitDx=0;exitDy=0;fontSize=12;" parent="183" source="191" target="196" edge="1">
                    <mxGeometry relative="1" as="geometry">
                        <mxPoint x="300" y="275" as="targetPoint"/>
                        <mxPoint x="300" y="270" as="sourcePoint"/>
                    </mxGeometry>
                </mxCell>
                <mxCell id="212" style="edgeStyle=orthogonalEdgeStyle;html=1;exitX=1;exitY=0.5;exitDx=0;exitDy=0;exitPerimeter=0;entryX=0.5;entryY=0;entryDx=0;entryDy=0;entryPerimeter=0;fontSize=12;" parent="1" source="213" target="186" edge="1">
                    <mxGeometry relative="1" as="geometry"/>
                </mxCell>
                <mxCell id="213" value="&lt;font style=&quot;font-size: 12px&quot;&gt;DELETE /users/:id&lt;/font&gt;" style="strokeWidth=2;html=1;shape=mxgraph.flowchart.start_1;whiteSpace=wrap;fontSize=18;" parent="1" vertex="1">
                    <mxGeometry x="110" y="1030" width="100" height="60" as="geometry"/>
                </mxCell>
                <mxCell id="214" value="&lt;font style=&quot;font-size: 12px&quot;&gt;End&lt;/font&gt;" style="strokeWidth=2;html=1;shape=mxgraph.flowchart.start_1;whiteSpace=wrap;fontSize=18;" parent="1" vertex="1">
                    <mxGeometry x="110" y="1690" width="100" height="60" as="geometry"/>
                </mxCell>
                <mxCell id="215" style="edgeStyle=orthogonalEdgeStyle;html=1;exitX=0;exitY=0.5;exitDx=0;exitDy=0;entryX=1;entryY=0.5;entryDx=0;entryDy=0;entryPerimeter=0;fontSize=12;" parent="1" source="192" target="214" edge="1">
                    <mxGeometry relative="1" as="geometry"/>
                </mxCell>
                <mxCell id="216" style="edgeStyle=orthogonalEdgeStyle;html=1;exitX=0;exitY=0.5;exitDx=0;exitDy=0;exitPerimeter=0;entryX=0.5;entryY=0;entryDx=0;entryDy=0;entryPerimeter=0;fontSize=12;" parent="1" source="187" target="214" edge="1">
                    <mxGeometry relative="1" as="geometry"/>
                </mxCell>
                <mxCell id="217" value="No" style="edgeLabel;html=1;align=center;verticalAlign=middle;resizable=0;points=[];fontSize=12;" parent="216" vertex="1" connectable="0">
                    <mxGeometry x="-0.8384" y="3" relative="1" as="geometry">
                        <mxPoint as="offset"/>
                    </mxGeometry>
                </mxCell>
                <mxCell id="218" style="edgeStyle=orthogonalEdgeStyle;html=1;exitX=0;exitY=0.5;exitDx=0;exitDy=0;exitPerimeter=0;fontSize=12;" parent="1" source="186" edge="1">
                    <mxGeometry relative="1" as="geometry">
                        <mxPoint x="160" y="1690" as="targetPoint"/>
                    </mxGeometry>
                </mxCell>
                <mxCell id="219" value="No" style="edgeLabel;html=1;align=center;verticalAlign=middle;resizable=0;points=[];fontSize=12;" parent="218" vertex="1" connectable="0">
                    <mxGeometry x="-0.8756" y="1" relative="1" as="geometry">
                        <mxPoint x="1" as="offset"/>
                    </mxGeometry>
                </mxCell>
                <mxCell id="220" style="edgeStyle=orthogonalEdgeStyle;html=1;exitX=0.5;exitY=1;exitDx=0;exitDy=0;exitPerimeter=0;fontSize=12;" parent="1" source="199" edge="1">
                    <mxGeometry relative="1" as="geometry">
                        <mxPoint x="560" y="1630" as="targetPoint"/>
                    </mxGeometry>
                </mxCell>
                <mxCell id="223" value="Yes" style="edgeLabel;html=1;align=center;verticalAlign=middle;resizable=0;points=[];fontSize=12;" parent="220" vertex="1" connectable="0">
                    <mxGeometry x="-0.1933" relative="1" as="geometry">
                        <mxPoint as="offset"/>
                    </mxGeometry>
                </mxCell>
                <mxCell id="225" style="edgeStyle=orthogonalEdgeStyle;html=1;exitX=0;exitY=0.5;exitDx=0;exitDy=0;exitPerimeter=0;entryX=0.5;entryY=0;entryDx=0;entryDy=0;entryPerimeter=0;fontSize=12;" parent="1" source="120" target="116" edge="1">
                    <mxGeometry relative="1" as="geometry"/>
                </mxCell>
                <mxCell id="228" value="No" style="edgeLabel;html=1;align=center;verticalAlign=middle;resizable=0;points=[];fontSize=12;" parent="225" vertex="1" connectable="0">
                    <mxGeometry x="-0.8164" y="3" relative="1" as="geometry">
                        <mxPoint as="offset"/>
                    </mxGeometry>
                </mxCell>
                <mxCell id="226" style="edgeStyle=orthogonalEdgeStyle;html=1;exitX=0;exitY=0.5;exitDx=0;exitDy=0;exitPerimeter=0;fontSize=12;" parent="1" source="121" edge="1">
                    <mxGeometry relative="1" as="geometry">
                        <mxPoint x="1020" y="850" as="targetPoint"/>
                    </mxGeometry>
                </mxCell>
                <mxCell id="227" value="No" style="edgeLabel;html=1;align=center;verticalAlign=middle;resizable=0;points=[];fontSize=12;" parent="226" vertex="1" connectable="0">
                    <mxGeometry x="-0.7828" y="-1" relative="1" as="geometry">
                        <mxPoint as="offset"/>
                    </mxGeometry>
                </mxCell>
                <mxCell id="229" value="Get Users" style="swimlane;childLayout=stackLayout;resizeParent=1;resizeParentMax=0;startSize=20;fontSize=18;strokeColor=default;" parent="1" vertex="1">
                    <mxGeometry x="1110" y="1010" width="600" height="590" as="geometry"/>
                </mxCell>
                <mxCell id="230" value="Middleware" style="swimlane;startSize=20;fontSize=18;strokeColor=default;" parent="229" vertex="1">
                    <mxGeometry y="20" width="120" height="570" as="geometry"/>
                </mxCell>
                <mxCell id="232" value="token header valid?" style="strokeWidth=2;html=1;shape=mxgraph.flowchart.decision;whiteSpace=wrap;fontSize=12;" parent="230" vertex="1">
                    <mxGeometry x="25" y="58" width="65" height="80" as="geometry"/>
                </mxCell>
                <mxCell id="234" value="Handler" style="swimlane;startSize=20;fontSize=18;strokeColor=default;" parent="229" vertex="1">
                    <mxGeometry x="120" y="20" width="120" height="570" as="geometry"/>
                </mxCell>
                <mxCell id="237" value="Call usecase get users" style="rounded=1;whiteSpace=wrap;html=1;absoluteArcSize=1;arcSize=14;strokeWidth=2;fontSize=12;" parent="234" vertex="1">
                    <mxGeometry x="10" y="260" width="90" height="50" as="geometry"/>
                </mxCell>
                <mxCell id="238" value="map response &amp;amp; handle error" style="rounded=1;whiteSpace=wrap;html=1;absoluteArcSize=1;arcSize=14;strokeWidth=2;fontSize=12;" parent="234" vertex="1">
                    <mxGeometry x="20" y="475" width="90" height="50" as="geometry"/>
                </mxCell>
                <mxCell id="241" value="Usecase" style="swimlane;startSize=20;fontSize=18;strokeColor=default;" parent="229" vertex="1">
                    <mxGeometry x="240" y="20" width="120" height="570" as="geometry">
                        <mxRectangle x="240" y="20" width="40" height="460" as="alternateBounds"/>
                    </mxGeometry>
                </mxCell>
                <mxCell id="242" value="Get users" style="rounded=1;whiteSpace=wrap;html=1;absoluteArcSize=1;arcSize=14;strokeWidth=2;fontSize=12;" parent="241" vertex="1">
                    <mxGeometry x="15" y="350" width="90" height="50" as="geometry"/>
                </mxCell>
                <mxCell id="245" value="Proxy" style="swimlane;startSize=20;fontSize=18;strokeColor=default;" parent="229" vertex="1">
                    <mxGeometry x="360" y="20" width="120" height="570" as="geometry">
                        <mxRectangle x="280" y="20" width="40" height="460" as="alternateBounds"/>
                    </mxGeometry>
                </mxCell>
                <mxCell id="246" value="Repo" style="swimlane;startSize=20;fontSize=18;strokeColor=default;" parent="229" vertex="1">
                    <mxGeometry x="480" y="20" width="120" height="570" as="geometry">
                        <mxRectangle x="280" y="20" width="40" height="460" as="alternateBounds"/>
                    </mxGeometry>
                </mxCell>
                <mxCell id="247" value="Get users" style="rounded=1;whiteSpace=wrap;html=1;absoluteArcSize=1;arcSize=14;strokeWidth=2;fontSize=12;" parent="246" vertex="1">
                    <mxGeometry x="15" y="350" width="90" height="50" as="geometry"/>
                </mxCell>
                <mxCell id="248" style="edgeStyle=orthogonalEdgeStyle;html=1;exitX=1;exitY=0.5;exitDx=0;exitDy=0;fontSize=12;" parent="229" source="242" target="247" edge="1">
                    <mxGeometry relative="1" as="geometry">
                        <mxPoint x="465" y="395" as="sourcePoint"/>
                    </mxGeometry>
                </mxCell>
                <mxCell id="252" style="edgeStyle=orthogonalEdgeStyle;html=1;exitX=0.5;exitY=1;exitDx=0;exitDy=0;entryX=1;entryY=0.5;entryDx=0;entryDy=0;fontSize=12;" parent="229" source="247" target="238" edge="1">
                    <mxGeometry relative="1" as="geometry">
                        <mxPoint x="300" y="480" as="targetPoint"/>
                    </mxGeometry>
                </mxCell>
                <mxCell id="253" style="edgeStyle=orthogonalEdgeStyle;html=1;exitX=1;exitY=0.5;exitDx=0;exitDy=0;fontSize=12;" parent="229" source="237" target="242" edge="1">
                    <mxGeometry relative="1" as="geometry">
                        <mxPoint x="300" y="275" as="targetPoint"/>
                        <mxPoint x="300" y="270" as="sourcePoint"/>
                    </mxGeometry>
                </mxCell>
                <mxCell id="231" value="" style="edgeStyle=orthogonalEdgeStyle;html=1;exitX=0.5;exitY=1;exitDx=0;exitDy=0;exitPerimeter=0;entryX=0.5;entryY=0;entryDx=0;entryDy=0;fontSize=12;" parent="229" source="232" target="237" edge="1">
                    <mxGeometry relative="1" as="geometry">
                        <mxPoint x="130" y="214.99999999999977" as="targetPoint"/>
                    </mxGeometry>
                </mxCell>
                <mxCell id="287" value="Yes" style="edgeLabel;html=1;align=center;verticalAlign=middle;resizable=0;points=[];" vertex="1" connectable="0" parent="231">
                    <mxGeometry x="-0.7303" y="-2" relative="1" as="geometry">
                        <mxPoint as="offset"/>
                    </mxGeometry>
                </mxCell>
                <mxCell id="254" style="edgeStyle=orthogonalEdgeStyle;html=1;exitX=1;exitY=0.5;exitDx=0;exitDy=0;exitPerimeter=0;entryX=0.5;entryY=0;entryDx=0;entryDy=0;entryPerimeter=0;fontSize=12;" parent="1" source="255" target="232" edge="1">
                    <mxGeometry relative="1" as="geometry"/>
                </mxCell>
                <mxCell id="255" value="&lt;font style=&quot;font-size: 12px&quot;&gt;GET /users&lt;/font&gt;" style="strokeWidth=2;html=1;shape=mxgraph.flowchart.start_1;whiteSpace=wrap;fontSize=18;" parent="1" vertex="1">
                    <mxGeometry x="960" y="1040" width="100" height="60" as="geometry"/>
                </mxCell>
                <mxCell id="256" value="&lt;font style=&quot;font-size: 12px&quot;&gt;End&lt;/font&gt;" style="strokeWidth=2;html=1;shape=mxgraph.flowchart.start_1;whiteSpace=wrap;fontSize=18;" parent="1" vertex="1">
                    <mxGeometry x="960" y="1500" width="100" height="60" as="geometry"/>
                </mxCell>
                <mxCell id="257" style="edgeStyle=orthogonalEdgeStyle;html=1;exitX=0;exitY=0.5;exitDx=0;exitDy=0;entryX=1;entryY=0.5;entryDx=0;entryDy=0;entryPerimeter=0;fontSize=12;" parent="1" source="238" target="256" edge="1">
                    <mxGeometry relative="1" as="geometry"/>
                </mxCell>
                <mxCell id="260" style="edgeStyle=orthogonalEdgeStyle;html=1;exitX=0;exitY=0.5;exitDx=0;exitDy=0;exitPerimeter=0;fontSize=12;" parent="1" source="232" edge="1">
                    <mxGeometry relative="1" as="geometry">
                        <mxPoint x="1010" y="1500" as="targetPoint"/>
                    </mxGeometry>
                </mxCell>
                <mxCell id="261" value="No" style="edgeLabel;html=1;align=center;verticalAlign=middle;resizable=0;points=[];fontSize=12;" parent="260" vertex="1" connectable="0">
                    <mxGeometry x="-0.8756" y="1" relative="1" as="geometry">
                        <mxPoint x="1" as="offset"/>
                    </mxGeometry>
                </mxCell>
                <mxCell id="264" value="Get User by ID" style="swimlane;childLayout=stackLayout;resizeParent=1;resizeParentMax=0;startSize=20;fontSize=18;strokeColor=default;" parent="1" vertex="1">
                    <mxGeometry x="2090" y="1000" width="600" height="590" as="geometry"/>
                </mxCell>
                <mxCell id="265" value="Middleware" style="swimlane;startSize=20;fontSize=18;strokeColor=default;" parent="264" vertex="1">
                    <mxGeometry y="20" width="120" height="570" as="geometry"/>
                </mxCell>
                <mxCell id="266" value="token header valid?" style="strokeWidth=2;html=1;shape=mxgraph.flowchart.decision;whiteSpace=wrap;fontSize=12;" parent="265" vertex="1">
                    <mxGeometry x="25" y="58" width="65" height="80" as="geometry"/>
                </mxCell>
                <mxCell id="267" value="Handler" style="swimlane;startSize=20;fontSize=18;strokeColor=default;" parent="264" vertex="1">
                    <mxGeometry x="120" y="20" width="120" height="570" as="geometry"/>
                </mxCell>
                <mxCell id="268" style="edgeStyle=orthogonalEdgeStyle;html=1;exitX=0.5;exitY=1;exitDx=0;exitDy=0;entryX=0.5;entryY=0;entryDx=0;entryDy=0;fontSize=12;" parent="267" source="269" target="270" edge="1">
                    <mxGeometry relative="1" as="geometry"/>
                </mxCell>
                <mxCell id="269" value="Get param ID" style="rounded=1;whiteSpace=wrap;html=1;absoluteArcSize=1;arcSize=14;strokeWidth=2;fontSize=12;" parent="267" vertex="1">
                    <mxGeometry x="10" y="170" width="90" height="50" as="geometry"/>
                </mxCell>
                <mxCell id="270" value="Call usecase get user" style="rounded=1;whiteSpace=wrap;html=1;absoluteArcSize=1;arcSize=14;strokeWidth=2;fontSize=12;" parent="267" vertex="1">
                    <mxGeometry x="10" y="260" width="90" height="50" as="geometry"/>
                </mxCell>
                <mxCell id="271" value="map response &amp;amp; handle error" style="rounded=1;whiteSpace=wrap;html=1;absoluteArcSize=1;arcSize=14;strokeWidth=2;fontSize=12;" parent="267" vertex="1">
                    <mxGeometry x="20" y="475" width="90" height="50" as="geometry"/>
                </mxCell>
                <mxCell id="272" value="Usecase" style="swimlane;startSize=20;fontSize=18;strokeColor=default;" parent="264" vertex="1">
                    <mxGeometry x="240" y="20" width="120" height="570" as="geometry">
                        <mxRectangle x="240" y="20" width="40" height="460" as="alternateBounds"/>
                    </mxGeometry>
                </mxCell>
                <mxCell id="273" value="Get user" style="rounded=1;whiteSpace=wrap;html=1;absoluteArcSize=1;arcSize=14;strokeWidth=2;fontSize=12;" parent="272" vertex="1">
                    <mxGeometry x="15" y="350" width="90" height="50" as="geometry"/>
                </mxCell>
                <mxCell id="274" value="Proxy" style="swimlane;startSize=20;fontSize=18;strokeColor=default;" parent="264" vertex="1">
                    <mxGeometry x="360" y="20" width="120" height="570" as="geometry">
                        <mxRectangle x="280" y="20" width="40" height="460" as="alternateBounds"/>
                    </mxGeometry>
                </mxCell>
                <mxCell id="275" value="Repo" style="swimlane;startSize=20;fontSize=18;strokeColor=default;" parent="264" vertex="1">
                    <mxGeometry x="480" y="20" width="120" height="570" as="geometry">
                        <mxRectangle x="280" y="20" width="40" height="460" as="alternateBounds"/>
                    </mxGeometry>
                </mxCell>
                <mxCell id="276" value="Get user" style="rounded=1;whiteSpace=wrap;html=1;absoluteArcSize=1;arcSize=14;strokeWidth=2;fontSize=12;" parent="275" vertex="1">
                    <mxGeometry x="15" y="350" width="90" height="50" as="geometry"/>
                </mxCell>
                <mxCell id="277" style="edgeStyle=orthogonalEdgeStyle;html=1;exitX=1;exitY=0.5;exitDx=0;exitDy=0;fontSize=12;" parent="264" source="273" target="276" edge="1">
                    <mxGeometry relative="1" as="geometry">
                        <mxPoint x="465" y="395" as="sourcePoint"/>
                    </mxGeometry>
                </mxCell>
                <mxCell id="278" style="edgeStyle=orthogonalEdgeStyle;html=1;exitX=0.5;exitY=1;exitDx=0;exitDy=0;entryX=1;entryY=0.5;entryDx=0;entryDy=0;fontSize=12;" parent="264" source="276" target="271" edge="1">
                    <mxGeometry relative="1" as="geometry">
                        <mxPoint x="300" y="480" as="targetPoint"/>
                    </mxGeometry>
                </mxCell>
                <mxCell id="279" style="edgeStyle=orthogonalEdgeStyle;html=1;exitX=1;exitY=0.5;exitDx=0;exitDy=0;fontSize=12;" parent="264" source="270" target="273" edge="1">
                    <mxGeometry relative="1" as="geometry">
                        <mxPoint x="300" y="275" as="targetPoint"/>
                        <mxPoint x="300" y="270" as="sourcePoint"/>
                    </mxGeometry>
                </mxCell>
                <mxCell id="280" value="Yes" style="edgeStyle=orthogonalEdgeStyle;html=1;exitX=0.5;exitY=1;exitDx=0;exitDy=0;exitPerimeter=0;entryX=0;entryY=0.5;entryDx=0;entryDy=0;fontSize=12;" parent="264" source="266" target="269" edge="1">
                    <mxGeometry relative="1" as="geometry">
                        <mxPoint x="58" y="200" as="targetPoint"/>
                    </mxGeometry>
                </mxCell>
                <mxCell id="281" style="edgeStyle=orthogonalEdgeStyle;html=1;exitX=1;exitY=0.5;exitDx=0;exitDy=0;exitPerimeter=0;entryX=0.5;entryY=0;entryDx=0;entryDy=0;entryPerimeter=0;fontSize=12;" parent="1" source="282" target="266" edge="1">
                    <mxGeometry relative="1" as="geometry"/>
                </mxCell>
                <mxCell id="282" value="&lt;font style=&quot;font-size: 12px&quot;&gt;GET /users/:id&lt;/font&gt;" style="strokeWidth=2;html=1;shape=mxgraph.flowchart.start_1;whiteSpace=wrap;fontSize=18;" parent="1" vertex="1">
                    <mxGeometry x="1940" y="1030" width="100" height="60" as="geometry"/>
                </mxCell>
                <mxCell id="283" value="&lt;font style=&quot;font-size: 12px&quot;&gt;End&lt;/font&gt;" style="strokeWidth=2;html=1;shape=mxgraph.flowchart.start_1;whiteSpace=wrap;fontSize=18;" parent="1" vertex="1">
                    <mxGeometry x="1940" y="1490" width="100" height="60" as="geometry"/>
                </mxCell>
                <mxCell id="284" style="edgeStyle=orthogonalEdgeStyle;html=1;exitX=0;exitY=0.5;exitDx=0;exitDy=0;entryX=1;entryY=0.5;entryDx=0;entryDy=0;entryPerimeter=0;fontSize=12;" parent="1" source="271" target="283" edge="1">
                    <mxGeometry relative="1" as="geometry"/>
                </mxCell>
                <mxCell id="285" style="edgeStyle=orthogonalEdgeStyle;html=1;exitX=0;exitY=0.5;exitDx=0;exitDy=0;exitPerimeter=0;fontSize=12;" parent="1" source="266" edge="1">
                    <mxGeometry relative="1" as="geometry">
                        <mxPoint x="1989.9999999999998" y="1490" as="targetPoint"/>
                    </mxGeometry>
                </mxCell>
                <mxCell id="286" value="No" style="edgeLabel;html=1;align=center;verticalAlign=middle;resizable=0;points=[];fontSize=12;" parent="285" vertex="1" connectable="0">
                    <mxGeometry x="-0.8756" y="1" relative="1" as="geometry">
                        <mxPoint x="1" as="offset"/>
                    </mxGeometry>
                </mxCell>
            </root>
        </mxGraphModel>
    </diagram>
</mxfile>